<svg width="50" height="50" viewBox="0 0 50 50" fill="none" xmlns="http://www.w3.org/2000/svg">
<path d="M39.8846 26.7292V27.0177L40.1345 27.1621L48.8169 32.1782C49.0282 32.3004 49.2008 32.4719 49.3197 32.6743C49.4384 32.8765 49.5001 33.1034 49.5 33.3332V33.3333V48.1481C49.5 48.5005 49.3548 48.8423 49.0899 49.0974C48.8244 49.3532 48.4603 49.5 48.0769 49.5H30.7692C30.3858 49.5 30.0218 49.3532 29.7562 49.0974C29.4913 48.8423 29.3462 48.5005 29.3462 48.1481V37.037C29.3462 35.9159 28.8835 34.8447 28.0665 34.058C27.2501 33.2718 26.1467 32.8333 25 32.8333C23.8533 32.8333 22.7499 33.2718 21.9335 34.058C21.1165 34.8447 20.6538 35.9159 20.6538 37.037V48.1481C20.6538 48.5005 20.5087 48.8423 20.2438 49.0974C19.9782 49.3532 19.6142 49.5 19.2308 49.5H1.92308C1.53969 49.5 1.17563 49.3532 0.910077 49.0974C0.645164 48.8423 0.5 48.5005 0.5 48.1481V33.3333L0.5 33.3332C0.499926 33.1034 0.56155 32.8765 0.680322 32.6743C0.799151 32.472 0.971673 32.3005 1.1829 32.1783C1.18296 32.1782 1.18302 32.1782 1.18308 32.1782L9.86507 27.1739L10.1154 27.0297V26.7407L10.1154 22.2338L10.1154 22.2291C10.1132 21.9936 10.1759 21.7605 10.2987 21.5536C10.4214 21.3469 10.6002 21.1728 10.8188 21.051C10.8192 21.0508 10.8195 21.0506 10.8199 21.0504L23.3178 14.1789L23.5769 14.0364V13.7407V9.25926V8.75926H23.0769H19.2308C18.8474 8.75926 18.4833 8.61242 18.2178 8.3567C17.9529 8.1016 17.8077 7.75972 17.8077 7.40741C17.8077 7.05509 17.9529 6.71321 18.2178 6.45811C18.4833 6.20239 18.8474 6.05556 19.2308 6.05556H23.0769H23.5769V5.55556V1.85185C23.5769 1.49954 23.7221 1.15766 23.987 0.902555C24.2526 0.646835 24.6166 0.5 25 0.5C25.3834 0.5 25.7474 0.646835 26.013 0.902555C26.2779 1.15766 26.4231 1.49954 26.4231 1.85185V5.55556V6.05556H26.9231H30.7692C31.1526 6.05556 31.5167 6.20239 31.7822 6.45811C32.0471 6.71321 32.1923 7.05509 32.1923 7.40741C32.1923 7.75972 32.0471 8.1016 31.7822 8.3567L32.1291 8.71686L31.7822 8.3567C31.5167 8.61242 31.1526 8.75926 30.7692 8.75926H26.9231H26.4231V9.25926V13.7407V14.0367L26.6825 14.1791L39.1801 21.0389C39.1805 21.039 39.1808 21.0392 39.1811 21.0394C39.3997 21.1612 39.5786 21.3353 39.7013 21.542C39.8241 21.7489 39.8868 21.982 39.8846 22.2176V22.2222V26.7292ZM9.61538 46.7963H10.1154V46.2963V31.0486V30.1823L9.36525 30.6157L3.59602 33.949L3.34615 34.0934V34.3819V46.2963V46.7963H3.84615H9.61538ZM46.1538 46.7963H46.6538V46.2963V34.3819V34.0934L46.404 33.949L40.6348 30.6157L39.8846 30.1823V31.0486V46.2963V46.7963H40.3846H46.1538Z" fill="white" stroke="black"/>
</svg>
