<svg width="50" height="50" viewBox="0 0 50 50" fill="none" xmlns="http://www.w3.org/2000/svg">
<path d="M0.283472 46.9576C3.941 40.382 9.57739 35.6669 16.1552 33.4318C12.9015 31.4175 10.3736 28.3483 8.95968 24.6954C7.54576 21.0425 7.324 17.008 8.32845 13.2113C9.3329 9.41471 11.508 6.06593 14.5198 3.67926C17.5316 1.29259 21.2134 0 25 0C28.7866 0 32.4684 1.29259 35.4802 3.67926C38.492 6.06593 40.6671 9.41471 41.6716 13.2113C42.676 17.008 42.4542 21.0425 41.0403 24.6954C39.6264 28.3483 37.0985 31.4175 33.8448 33.4318C40.4226 35.6644 46.059 40.3795 49.7165 46.9576C49.8507 47.185 49.9396 47.4381 49.9782 47.7019C50.0167 47.9656 50.0041 48.2347 49.941 48.4934C49.8779 48.752 49.7657 48.9948 49.6109 49.2076C49.4561 49.4203 49.2619 49.5987 49.0397 49.7321C48.8176 49.8656 48.572 49.9514 48.3174 49.9845C48.0628 50.0177 47.8044 49.9974 47.5575 49.9251C47.3106 49.8527 47.0801 49.7296 46.8796 49.5631C46.6792 49.3965 46.5128 49.19 46.3904 48.9555C41.8659 40.824 33.8688 35.9691 25 35.9691C16.1312 35.9691 8.13407 40.824 3.60959 48.9555C3.48716 49.19 3.32081 49.3965 3.12037 49.5631C2.91992 49.7296 2.68943 49.8527 2.4425 49.9251C2.19557 49.9974 1.93719 50.0177 1.68262 49.9845C1.42805 49.9514 1.18244 49.8656 0.960283 49.7321C0.738124 49.5987 0.543915 49.4203 0.389117 49.2076C0.23432 48.9948 0.122071 48.752 0.0589878 48.4934C-0.00409532 48.2347 -0.0167321 47.9656 0.0218231 47.7019C0.0603782 47.4381 0.149344 47.185 0.283472 46.9576ZM38.4486 17.9879C38.4486 15.2219 37.6598 12.518 36.1821 10.2181C34.7043 7.91823 32.6039 6.12569 30.1465 5.06718C27.6891 4.00866 24.9851 3.7317 22.3763 4.27133C19.7676 4.81096 17.3713 6.14293 15.4904 8.09882C13.6096 10.0547 12.3288 12.5467 11.8099 15.2595C11.2909 17.9724 11.5573 20.7844 12.5752 23.3399C13.593 25.8954 15.3168 28.0796 17.5284 29.6163C19.74 31.1531 22.3401 31.9733 25 31.9733C28.5656 31.9693 31.9841 30.4946 34.5054 27.8727C37.0266 25.2508 38.4447 21.6959 38.4486 17.9879Z" fill="black"/>
</svg>
