<svg width="50" height="50" viewBox="0 0 50 50" fill="none" xmlns="http://www.w3.org/2000/svg">
<path d="M18.5075 0C21.4314 0.00262086 24.3132 0.696474 26.9177 2.02491C29.5222 3.35334 31.7755 5.27869 33.4936 7.64376C35.2116 10.0088 36.3458 12.7465 36.8035 15.6334C37.2612 18.5203 37.0294 21.4744 36.1271 24.2546L49.4581 37.5787C49.6301 37.7508 49.7665 37.9551 49.8595 38.1799C49.9524 38.4047 50.0002 38.6456 50 38.8889V48.1481C50 48.6393 49.8048 49.1103 49.4574 49.4576C49.11 49.8049 48.6388 50 48.1475 50H38.885C38.3937 50 37.9225 49.8049 37.5751 49.4576C37.2277 49.1103 37.0325 48.6393 37.0325 48.1481V44.4444H33.3275C32.8362 44.4444 32.365 44.2493 32.0176 43.9021C31.6702 43.5548 31.475 43.0837 31.475 42.5926V38.8889H27.77C27.5267 38.8891 27.2857 38.8413 27.0608 38.7484C26.8359 38.6555 26.6315 38.5191 26.4594 38.3472L24.2456 36.1319C21.6995 36.9583 19.0045 37.2232 16.3462 36.9085C13.6879 36.5938 11.1293 35.7068 8.84681 34.3088C6.56427 32.9108 4.61193 31.0348 3.12424 28.8102C1.63655 26.5855 0.64884 24.0649 0.229124 21.422C-0.190593 18.7792 -0.0323467 16.0768 0.69297 13.5009C1.41829 10.925 2.69344 8.53686 4.43063 6.50089C6.16781 4.46493 8.32577 2.82951 10.7559 1.70725C13.186 0.58498 15.8306 0.00252942 18.5075 0ZM18.5075 33.3333C20.3828 33.3365 22.2414 32.9822 23.9839 32.2894C24.3248 32.1415 24.7023 32.0995 25.0673 32.1688C25.4324 32.2382 25.7681 32.4157 26.031 32.6782L28.5365 35.1852H33.3275C33.8188 35.1852 34.29 35.3803 34.6374 35.7276C34.9848 36.0749 35.18 36.5459 35.18 37.037V40.7407H38.885C39.3763 40.7407 39.8475 40.9358 40.1949 41.2831C40.5423 41.6304 40.7375 42.1015 40.7375 42.5926V46.2963H46.295V39.6551L32.6722 26.0394C32.4095 25.7766 32.232 25.441 32.1626 25.0761C32.0932 24.7111 32.1352 24.3338 32.2831 23.9931C33.4546 21.0483 33.6506 17.8055 32.8423 14.7412C32.034 11.6768 30.264 8.9523 27.7923 6.96783C25.3205 4.98337 22.2774 3.84354 19.1097 3.71575C15.9421 3.58797 12.8169 4.47896 10.1933 6.25787C7.5696 8.03679 5.58573 10.6099 4.53303 13.5991C3.48033 16.5884 3.41429 19.8364 4.34461 22.866C5.27492 25.8956 7.15256 28.5471 9.70174 30.4311C12.2509 32.3151 15.3373 33.3323 18.5075 33.3333ZM11.0975 13.8889C11.0975 14.4383 11.2605 14.9753 11.5658 15.4321C11.8711 15.8889 12.3051 16.245 12.8129 16.4552C13.3206 16.6655 13.8793 16.7205 14.4184 16.6133C14.9574 16.5061 15.4525 16.2416 15.8411 15.8531C16.2297 15.4646 16.4944 14.9696 16.6016 14.4308C16.7088 13.892 16.6538 13.3335 16.4435 12.8259C16.2332 12.3183 15.877 11.8845 15.42 11.5793C14.9631 11.274 14.4258 11.1111 13.8762 11.1111C13.1393 11.1111 12.4325 11.4038 11.9114 11.9247C11.3903 12.4456 11.0975 13.1522 11.0975 13.8889Z" fill="black"/>
</svg>
