<svg width="60" height="47" viewBox="0 0 60 47" fill="none" xmlns="http://www.w3.org/2000/svg">
<path d="M0 2.76471C0 2.03146 0.263393 1.32825 0.732234 0.809764C1.20107 0.291281 1.83696 0 2.5 0H57.5C58.163 0 58.7989 0.291281 59.2678 0.809764C59.7366 1.32825 60 2.03146 60 2.76471C60 3.49795 59.7366 4.20116 59.2678 4.71965C58.7989 5.23813 58.163 5.52941 57.5 5.52941H2.5C1.83696 5.52941 1.20107 5.23813 0.732234 4.71965C0.263393 4.20116 0 3.49795 0 2.76471ZM10 13.8235C9.33696 13.8235 8.70107 14.1148 8.23223 14.6333C7.76339 15.1518 7.5 15.855 7.5 16.5882C7.5 17.3215 7.76339 18.0247 8.23223 18.5432C8.70107 19.0617 9.33696 19.3529 10 19.3529H50C50.663 19.3529 51.2989 19.0617 51.7678 18.5432C52.2366 18.0247 52.5 17.3215 52.5 16.5882C52.5 15.855 52.2366 15.1518 51.7678 14.6333C51.2989 14.1148 50.663 13.8235 50 13.8235H10ZM57.5 27.6471H2.5C1.83696 27.6471 1.20107 27.9383 0.732234 28.4568C0.263393 28.9753 0 29.6785 0 30.4118C0 31.145 0.263393 31.8482 0.732234 32.3667C1.20107 32.8852 1.83696 33.1765 2.5 33.1765H57.5C58.163 33.1765 58.7989 32.8852 59.2678 32.3667C59.7366 31.8482 60 31.145 60 30.4118C60 29.6785 59.7366 28.9753 59.2678 28.4568C58.7989 27.9383 58.163 27.6471 57.5 27.6471ZM50 41.4706H10C9.33696 41.4706 8.70107 41.7619 8.23223 42.2803C7.76339 42.7988 7.5 43.502 7.5 44.2353C7.5 44.9685 7.76339 45.6718 8.23223 46.1902C8.70107 46.7087 9.33696 47 10 47H50C50.663 47 51.2989 46.7087 51.7678 46.1902C52.2366 45.6718 52.5 44.9685 52.5 44.2353C52.5 43.502 52.2366 42.7988 51.7678 42.2803C51.2989 41.7619 50.663 41.4706 50 41.4706Z" fill="white"/>
</svg>
