<svg width="42" height="44" viewBox="0 0 42 44" fill="none" xmlns="http://www.w3.org/2000/svg">
<path d="M41.5271 40.2568L31.4278 30.1523C34.355 26.6355 35.8146 22.1248 35.5031 17.5584C35.1915 12.9921 33.1328 8.72175 29.7551 5.63573C26.3775 2.5497 21.9409 0.885589 17.3684 0.989581C12.7959 1.09357 8.43944 2.95766 5.20535 6.19406C1.97127 9.43046 0.108511 13.79 0.00459284 18.3658C-0.099325 22.9416 1.56359 27.3813 4.64742 30.7614C7.73125 34.1414 11.9986 36.2017 16.5616 36.5134C21.1247 36.8252 25.6322 35.3645 29.1465 32.4352L39.2438 42.5418C39.3937 42.6918 39.5717 42.8108 39.7676 42.892C39.9635 42.9732 40.1734 43.015 40.3855 43.015C40.5975 43.015 40.8074 42.9732 41.0033 42.892C41.1992 42.8108 41.3772 42.6918 41.5271 42.5418C41.677 42.3917 41.796 42.2136 41.8771 42.0176C41.9582 41.8216 42 41.6115 42 41.3993C42 41.1871 41.9582 40.977 41.8771 40.781C41.796 40.585 41.677 40.4069 41.5271 40.2568ZM3.27185 18.7923C3.27185 15.9179 4.1236 13.1081 5.71937 10.7181C7.31515 8.32816 9.58329 6.46542 12.237 5.36544C14.8906 4.26547 17.8107 3.97766 20.6278 4.53843C23.4449 5.09919 26.0326 6.48333 28.0637 8.51582C30.0947 10.5483 31.4779 13.1379 32.0382 15.957C32.5986 18.7761 32.311 21.6983 31.2118 24.3538C30.1126 27.0094 28.2512 29.2792 25.863 30.8761C23.4747 32.473 20.6669 33.3254 17.7946 33.3254C13.9442 33.3211 10.2528 31.7886 7.53018 29.064C4.80756 26.3394 3.27612 22.6454 3.27185 18.7923Z" fill="#9A9494"/>
</svg>
