<svg width="47" height="47" viewBox="0 0 47 47" fill="none" xmlns="http://www.w3.org/2000/svg">
<path d="M46.374 43.3512C46.5724 43.5496 46.7299 43.7853 46.8373 44.0446C46.9447 44.3039 47 44.5819 47 44.8626C47 45.1432 46.9447 45.4212 46.8373 45.6805C46.7299 45.9398 46.5724 46.1755 46.374 46.374C46.1755 46.5724 45.9399 46.7299 45.6805 46.8373C45.4212 46.9447 45.1433 47 44.8626 47C44.5819 47 44.3039 46.9447 44.0446 46.8373C43.7853 46.7299 43.5497 46.5724 43.3512 46.374L21.9889 25.0114C21.7902 24.813 21.6327 24.5774 21.5252 24.3181C21.4177 24.0587 21.3623 23.7807 21.3623 23.5C21.3623 23.2193 21.4177 22.9413 21.5252 22.6819C21.6327 22.4226 21.7902 22.187 21.9889 21.9886L43.3512 0.626043C43.752 0.225194 44.2957 -1.11747e-08 44.8626 0C45.4295 1.11747e-08 45.9731 0.225194 46.374 0.626043C46.7748 1.02689 47 1.57056 47 2.13744C47 2.70433 46.7748 3.248 46.374 3.64884L26.5203 23.5L46.374 43.3512ZM5.15801 23.5L25.0116 3.64884C25.4125 3.248 25.6377 2.70433 25.6377 2.13744C25.6377 1.57056 25.4125 1.02689 25.0116 0.626043C24.6108 0.225194 24.0671 4.22363e-09 23.5002 0C22.9334 -4.22362e-09 22.3897 0.225194 21.9889 0.626043L0.626529 21.9886C0.427909 22.187 0.270343 22.4226 0.162839 22.6819C0.0553341 22.9413 0 23.2193 0 23.5C0 23.7807 0.0553341 24.0587 0.162839 24.3181C0.270343 24.5774 0.427909 24.813 0.626529 25.0114L21.9889 46.374C22.1873 46.5724 22.423 46.7299 22.6823 46.8373C22.9416 46.9447 23.2196 47 23.5002 47C23.7809 47 24.0589 46.9447 24.3182 46.8373C24.5775 46.7299 24.8132 46.5724 25.0116 46.374C25.2101 46.1755 25.3676 45.9398 25.475 45.6805C25.5824 45.4212 25.6377 45.1432 25.6377 44.8626C25.6377 44.5819 25.5824 44.3039 25.475 44.0446C25.3676 43.7853 25.2101 43.5496 25.0116 43.3512L5.15801 23.5Z" fill="#8A1814"/>
</svg>
