<svg width="50" height="50" viewBox="0 0 50 50" fill="none" xmlns="http://www.w3.org/2000/svg">
<path d="M10.8573 29.0511H10.8565L1.66364 29.0511L1.66261 29.0511C1.44775 29.0515 1.20978 28.9541 0.993603 28.721C0.775464 28.4858 0.604608 28.136 0.531818 27.7175C0.487237 27.4306 0.489545 27.133 0.538479 26.8477C0.587665 26.5609 0.681641 26.2997 0.808294 26.0817L0.80839 26.0818L0.813498 26.0725C2.24823 23.479 4.14092 21.457 6.29342 20.186L6.79098 19.8922L6.42874 19.442C5.49301 18.2791 4.76713 16.8166 4.32077 15.1727C3.87452 13.5291 3.72298 11.7603 3.8806 10.0164C4.03824 8.27228 4.49978 6.61161 5.22105 5.17342C5.94251 3.73485 6.8984 2.56911 7.99788 1.7618C9.09562 0.955781 10.3045 0.529858 11.524 0.501516C12.7433 0.47318 13.9601 0.842521 15.0747 1.59529C16.1913 2.34939 17.1742 3.46797 17.9304 4.87056C18.6862 6.27254 19.1887 7.90931 19.3899 9.64434C19.4079 9.80782 19.3853 9.97086 19.332 10.1046C19.278 10.2401 19.2053 10.3161 19.1511 10.3495L19.1511 10.3495L19.1472 10.352C16.7406 11.8685 14.7243 14.2769 13.3182 17.2717C11.9117 20.2672 11.1671 23.739 11.1649 27.2787V27.279V27.2872C11.1649 27.6423 11.1649 28.0117 11.1905 28.3839C11.1935 28.4863 11.1815 28.5869 11.1564 28.679C11.1306 28.7736 11.0931 28.8521 11.0512 28.9121C11.0092 28.9721 10.967 29.008 10.9334 29.0276C10.9011 29.0464 10.8758 29.0511 10.8573 29.0511ZM49.1737 26.0695L49.3009 26.2997C49.3727 26.466 49.4275 26.65 49.4613 26.8461C49.5105 27.1318 49.5128 27.4299 49.468 27.7173C49.3952 28.1359 49.2243 28.4857 49.0062 28.721C48.79 28.9541 48.552 29.0515 48.3372 29.0511H48.3361H39.1433H39.1425C39.124 29.0511 39.0987 29.0464 39.0663 29.0276C39.0327 29.008 38.9905 28.9721 38.9486 28.9121C38.9067 28.8521 38.8691 28.7736 38.8434 28.679C38.8183 28.5869 38.8063 28.4863 38.8093 28.3839C38.8349 28.0118 38.8349 27.6424 38.8349 27.2873V27.279V27.2787C38.8326 23.739 38.088 20.2672 36.6816 17.2717C35.2755 14.2769 33.2592 11.8685 30.8526 10.352L30.8526 10.352L30.8486 10.3495C30.7945 10.3161 30.7217 10.2401 30.6677 10.1046C30.6144 9.97077 30.5918 9.8076 30.6099 9.64401C30.8111 7.9091 31.3136 6.27245 32.0694 4.87056C32.8255 3.46797 33.8084 2.3494 34.9251 1.59529C36.0397 0.842521 37.2565 0.47318 38.4758 0.501516C39.6953 0.529858 40.9041 0.955781 42.0019 1.7618C43.1014 2.56911 44.0573 3.73485 44.7787 5.17342C45.5 6.61161 45.9615 8.27228 46.1192 10.0164C46.2768 11.7603 46.1253 13.5291 45.679 15.1727C45.2326 16.8166 44.5068 18.2791 43.571 19.442L43.2093 19.8916L43.7058 20.1857C45.8539 21.458 47.7422 23.4789 49.1737 26.0695ZM30.7062 37.7455L29.8959 38.5913H30.9442C33.7335 40.2733 36.0899 43.1315 37.6518 46.7875C37.7702 47.0672 37.8353 47.3921 37.8353 47.728C37.8352 48.0642 37.77 48.3892 37.6515 48.6691C37.5326 48.9496 37.3695 49.1635 37.1924 49.3028C37.0176 49.4403 36.837 49.5001 36.6682 49.5H36.668H13.3318H13.3316C13.1627 49.5001 12.9822 49.4403 12.8073 49.3028C12.6303 49.1635 12.4672 48.9496 12.3483 48.6691C12.2297 48.3892 12.1645 48.0642 12.1645 47.728C12.1645 47.392 12.2296 47.0672 12.348 46.7874C13.9281 43.0832 16.3239 40.1967 19.1596 38.5219L19.7029 38.201L19.2664 37.7455C17.6797 36.089 16.4975 33.7777 15.9058 31.1257C15.3144 28.4748 15.3473 25.6359 15.9996 23.0127C16.6521 20.3885 17.8864 18.1314 19.5084 16.5463C21.1278 14.9638 23.0446 14.1355 24.9863 14.1355C26.9281 14.1355 28.8449 14.9638 30.4643 16.5463C32.0863 18.1314 33.3206 20.3885 33.9731 23.0127C34.6253 25.6359 34.6583 28.4748 34.0669 31.1257C33.4752 33.7777 32.293 36.089 30.7062 37.7455Z" fill="white" stroke="black"/>
</svg>
