<svg width="32" height="24" viewBox="0 0 32 24" fill="none" xmlns="http://www.w3.org/2000/svg">
<g filter="url(#filter0_d_58_324)">
<path d="M14.9718 10.6675C15.977 9.99832 16.7401 9.0234 17.1484 7.88693C17.5567 6.75047 17.5883 5.51279 17.2388 4.35692C16.8892 3.20105 16.177 2.18836 15.2073 1.4686C14.2377 0.748842 13.0622 0.360229 11.8546 0.360229C10.647 0.360229 9.47153 0.748842 8.5019 1.4686C7.53227 2.18836 6.82001 3.20105 6.47045 4.35692C6.12089 5.51279 6.15257 6.75047 6.56083 7.88693C6.96909 9.0234 7.73224 9.99832 8.73743 10.6675C6.91914 11.3377 5.36628 12.5778 4.31055 14.2028C4.25507 14.2853 4.21653 14.378 4.19717 14.4755C4.17782 14.5729 4.17803 14.6733 4.19781 14.7707C4.21759 14.8681 4.25653 14.9606 4.31237 15.0429C4.36821 15.1251 4.43983 15.1954 4.52309 15.2497C4.60634 15.304 4.69955 15.3412 4.79731 15.3592C4.89507 15.3771 4.99542 15.3755 5.09254 15.3543C5.18965 15.3331 5.28159 15.2929 5.36301 15.2359C5.44443 15.1788 5.5137 15.1062 5.5668 15.0222C6.24779 13.9748 7.17964 13.1141 8.27771 12.5183C9.37579 11.9225 10.6053 11.6104 11.8546 11.6104C13.1039 11.6104 14.3334 11.9225 15.4315 12.5183C16.5296 13.1141 17.4614 13.9748 18.1424 15.0222C18.2524 15.1857 18.4224 15.2993 18.6155 15.3385C18.8086 15.3777 19.0094 15.3394 19.1744 15.2317C19.3395 15.1241 19.4555 14.9558 19.4975 14.7632C19.5395 14.5707 19.504 14.3694 19.3987 14.2028C18.343 12.5778 16.7901 11.3377 14.9718 10.6675ZM7.72961 5.98751C7.72961 5.17166 7.97154 4.37414 8.4248 3.69578C8.87806 3.01743 9.5223 2.48872 10.276 2.17651C11.0298 1.8643 11.8592 1.78261 12.6594 1.94177C13.4595 2.10094 14.1945 2.4938 14.7714 3.0707C15.3483 3.64759 15.7412 4.38259 15.9004 5.18276C16.0595 5.98294 15.9778 6.81234 15.6656 7.56608C15.3534 8.31983 14.8247 8.96406 14.1463 9.41732C13.468 9.87058 12.6705 10.1125 11.8546 10.1125C10.761 10.1113 9.71249 9.67628 8.93917 8.90296C8.16585 8.12964 7.73086 7.08115 7.72961 5.98751ZM27.4302 15.2406C27.2636 15.3493 27.0607 15.3873 26.8661 15.3463C26.6715 15.3054 26.5011 15.1888 26.3924 15.0222C25.7123 13.9742 24.7805 13.1131 23.6822 12.5176C22.5839 11.922 21.354 11.6108 20.1046 11.6125C19.9057 11.6125 19.7149 11.5335 19.5743 11.3928C19.4336 11.2522 19.3546 11.0614 19.3546 10.8625C19.3546 10.6636 19.4336 10.4728 19.5743 10.3322C19.7149 10.1915 19.9057 10.1125 20.1046 10.1125C20.7121 10.1119 21.3119 9.9772 21.8613 9.71793C22.4107 9.45866 22.896 9.08125 23.2826 8.61267C23.6692 8.1441 23.9475 7.59592 24.0977 7.0073C24.2479 6.41869 24.2662 5.80417 24.1513 5.20765C24.0365 4.61113 23.7913 4.04735 23.4333 3.55657C23.0753 3.06579 22.6133 2.66014 22.0804 2.36861C21.5475 2.07707 20.9567 1.90683 20.3504 1.87007C19.744 1.83331 19.137 1.93093 18.5727 2.15595C18.4807 2.19572 18.3817 2.21665 18.2815 2.21749C18.1813 2.21834 18.0819 2.19909 17.9892 2.16088C17.8966 2.12267 17.8125 2.06628 17.742 1.99503C17.6715 1.92378 17.616 1.83912 17.5788 1.74606C17.5416 1.653 17.5234 1.55343 17.5253 1.45322C17.5272 1.35301 17.5492 1.2542 17.5899 1.16262C17.6307 1.07105 17.6893 0.988574 17.7625 0.920066C17.8357 0.851559 17.9218 0.798411 18.0159 0.763762C19.3072 0.248747 20.7436 0.230214 22.0478 0.711737C23.352 1.19326 24.4317 2.14072 25.0786 3.37134C25.7255 4.60196 25.8937 6.02854 25.5508 7.37587C25.2079 8.7232 24.3783 9.89582 23.2218 10.6675C25.0401 11.3377 26.593 12.5778 27.6487 14.2028C27.7573 14.3694 27.7953 14.5723 27.7544 14.767C27.7134 14.9616 27.5968 15.132 27.4302 15.2406Z" fill="black"/>
</g>
<defs>
<filter id="filter0_d_58_324" x="0.182816" y="0.360229" width="31.5876" height="23.0112" filterUnits="userSpaceOnUse" color-interpolation-filters="sRGB">
<feFlood flood-opacity="0" result="BackgroundImageFix"/>
<feColorMatrix in="SourceAlpha" type="matrix" values="0 0 0 0 0 0 0 0 0 0 0 0 0 0 0 0 0 0 127 0" result="hardAlpha"/>
<feOffset dy="4"/>
<feGaussianBlur stdDeviation="2"/>
<feComposite in2="hardAlpha" operator="out"/>
<feColorMatrix type="matrix" values="0 0 0 0 0 0 0 0 0 0 0 0 0 0 0 0 0 0 0.25 0"/>
<feBlend mode="normal" in2="BackgroundImageFix" result="effect1_dropShadow_58_324"/>
<feBlend mode="normal" in="SourceGraphic" in2="effect1_dropShadow_58_324" result="shape"/>
</filter>
</defs>
</svg>
