<svg width="25" height="15" viewBox="0 0 25 15" fill="none" xmlns="http://www.w3.org/2000/svg">
<path d="M15.6765 13.8427C15.7503 13.9558 15.7921 14.0868 15.7976 14.2218C15.8031 14.3568 15.7721 14.4907 15.7077 14.6095C15.6434 14.7283 15.5481 14.8275 15.4321 14.8967C15.316 14.9658 15.1834 15.0023 15.0483 15.0023H1.21646C1.08136 15.0023 0.948779 14.9658 0.832714 14.8967C0.71665 14.8275 0.621416 14.7283 0.557075 14.6095C0.492733 14.4907 0.461673 14.3568 0.467175 14.2218C0.472678 14.0868 0.514539 13.9558 0.588336 13.8427C1.64406 12.2176 3.19692 10.9775 5.01521 10.3073C4.01002 9.63815 3.24687 8.66323 2.83862 7.52677C2.43036 6.3903 2.39867 5.15262 2.74823 3.99675C3.0978 2.84088 3.81006 1.82819 4.77968 1.10843C5.74931 0.388674 6.92483 6.10352e-05 8.1324 6.10352e-05C9.33997 6.10352e-05 10.5155 0.388674 11.4851 1.10843C12.4547 1.82819 13.167 2.84088 13.5166 3.99675C13.8661 5.15262 13.8344 6.3903 13.4262 7.52677C13.0179 8.66323 12.2548 9.63815 11.2496 10.3073C13.0679 10.9775 14.6207 12.2176 15.6765 13.8427ZM23.918 13.8286C22.862 12.2104 21.3126 10.9756 19.4996 10.3073C20.6863 9.50799 21.5237 8.28647 21.8415 6.89142C22.1593 5.49636 21.9335 4.03264 21.2102 2.79818C20.4868 1.56372 19.3202 0.651317 17.9478 0.246683C16.5754 -0.15795 15.1004 -0.024398 13.823 0.620156C13.7742 0.645376 13.7315 0.681027 13.6979 0.724583C13.6644 0.76814 13.6409 0.818537 13.629 0.872207C13.6171 0.925876 13.6171 0.981504 13.6291 1.03515C13.6411 1.0888 13.6647 1.13916 13.6983 1.18266C14.6482 2.36748 15.1937 3.82532 15.2549 5.34264C15.3162 6.85996 14.8899 8.35702 14.0386 9.61453C13.9836 9.69671 13.9633 9.7973 13.9821 9.8944C14.0009 9.9915 14.0573 10.0772 14.139 10.133C15.2489 10.9076 16.199 11.8889 16.9374 13.0233C17.2352 13.4793 17.3568 14.0282 17.2796 14.5673C17.2709 14.621 17.274 14.6759 17.2886 14.7282C17.3032 14.7805 17.329 14.8291 17.3642 14.8704C17.3994 14.9118 17.4432 14.945 17.4925 14.9678C17.5419 14.9906 17.5956 15.0024 17.6499 15.0023H23.303C23.4682 15.0024 23.6287 14.9479 23.7598 14.8474C23.8908 14.7469 23.985 14.6059 24.0277 14.4464C24.0538 14.3415 24.0575 14.2323 24.0386 14.1258C24.0197 14.0194 23.9786 13.9181 23.918 13.8286Z" fill="white"/>
</svg>
